<svg xmlns="http://www.w3.org/2000/svg" width="32" height="32" viewBox="0 0 1024 1024">
<g>
<path d="M 566.50 840.41 C551.91,841.91 522.50,843.00 513.00,842.39 C436.46,837.49 373.60,816.78 313.50,776.67 C286.49,758.64 267.64,742.73 241.66,716.01 C185.28,658.03 151.55,590.69 142.48,518.00 C140.27,500.26 140.25,468.03 142.43,450.67 C150.78,384.28 179.46,327.71 229.30,279.35 C274.34,235.63 335.15,206.53 404.42,195.52 C457.33,187.11 524.49,188.47 575.50,198.99 C612.27,206.57 643.29,218.04 651.44,227.06 C655.17,231.19 655.65,233.15 654.00,237.49 C652.64,241.07 646.04,243.92 624.99,250.03 C594.08,259.00 579.01,264.76 558.00,275.66 C480.63,315.77 421.81,392.40 408.05,471.00 C395.99,539.92 415.38,609.96 462.05,666.01 C487.02,696.01 514.39,717.89 546.50,733.55 C554.75,737.57 566.22,742.45 572.00,744.39 C615.57,759.06 658.63,759.72 702.80,746.38 C767.70,726.77 830.10,673.10 861.37,610.00 C868.98,594.65 873.31,582.85 877.35,566.50 C881.84,548.31 882.49,542.46 882.47,520.00 C882.45,502.10 882.08,496.57 880.26,487.00 C871.29,439.89 849.46,399.92 813.86,365.43 C789.59,341.92 771.84,332.06 753.72,332.02 C743.93,332.00 737.93,334.19 732.86,339.66 C727.12,345.84 725.50,350.64 725.50,361.50 C725.50,370.63 725.76,372.00 728.48,377.29 C736.58,393.03 746.07,400.66 777.74,416.89 C802.77,429.72 808.24,433.07 818.24,441.69 C832.41,453.90 842.65,470.57 847.63,489.50 C851.18,503.02 851.31,520.90 847.97,535.00 C845.51,545.36 840.49,558.15 836.52,564.15 C835.13,566.24 834.00,568.23 834.00,568.56 C834.00,569.82 821.81,584.00 817.27,588.01 C803.45,600.23 785.27,609.11 763.61,614.20 C756.17,615.95 751.20,616.36 736.50,616.42 C725.17,616.47 715.91,616.00 711.50,615.15 C671.12,607.35 640.52,591.42 611.36,563.04 C594.01,546.15 581.47,528.87 571.05,507.50 C539.95,443.73 548.10,373.97 591.96,328.64 C608.27,311.79 622.57,302.04 641.41,294.94 C658.73,288.42 668.58,286.73 689.50,286.70 C709.91,286.67 720.14,288.28 739.47,294.56 C772.71,305.36 811.45,331.68 838.10,361.56 C847.92,372.58 849.46,374.43 855.31,382.25 C880.49,415.90 895.86,452.37 902.60,494.50 C904.99,509.40 904.99,539.17 902.60,555.00 C895.85,599.82 878.99,638.88 848.65,680.00 C830.70,704.34 809.15,726.75 779.99,751.38 C778.61,752.55 773.21,756.70 767.99,760.62 C707.82,805.74 639.13,832.94 566.50,840.41 Z" fill="#25D366"/>
<path d="M 512.50 839.85 C518.55,840.32 527.10,840.55 531.50,840.37 C557.56,839.29 566.49,838.67 575.00,837.35 C609.18,832.07 614.04,831.13 617.68,829.18 C618.89,828.53 621.07,828.00 622.54,828.00 C625.33,828.00 640.33,823.75 645.50,821.50 C647.15,820.78 650.87,819.66 653.77,819.00 C656.66,818.34 661.39,816.51 664.27,814.92 C667.15,813.33 670.52,812.03 671.76,812.02 C674.03,812.00 674.62,811.78 680.83,808.67 C682.66,807.75 684.54,807.00 684.99,807.00 C685.83,807.00 709.82,795.30 715.50,792.12 C721.35,788.85 729.52,783.31 730.82,781.73 C731.54,780.85 733.57,779.82 735.32,779.43 C737.07,779.05 739.62,777.89 741.00,776.85 C742.38,775.82 744.40,774.28 745.50,773.45 C746.60,772.61 750.96,769.70 755.19,766.97 C759.42,764.24 763.15,761.57 763.48,761.04 C763.81,760.50 767.43,757.75 771.54,754.91 C775.64,752.07 779.00,749.37 779.00,748.90 C779.00,748.43 780.40,747.33 782.12,746.44 C783.84,745.55 790.18,739.91 796.22,733.91 C802.26,727.91 807.60,723.00 808.09,723.00 C808.58,723.00 809.62,721.45 810.41,719.57 C811.20,717.67 813.17,715.44 814.83,714.59 C818.45,712.71 842.00,686.77 842.00,684.65 C842.00,683.82 843.01,682.33 844.25,681.32 C845.49,680.32 847.62,677.82 849.00,675.76 C850.38,673.70 851.84,672.01 852.25,672.01 C852.66,672.00 853.00,671.36 853.00,670.57 C853.00,669.79 853.63,668.51 854.40,667.74 C855.17,666.97 857.02,664.01 858.51,661.17 C859.99,658.33 861.58,656.00 862.04,656.00 C862.49,656.00 863.17,654.99 863.55,653.75 C863.93,652.51 864.93,650.71 865.78,649.74 C867.57,647.71 869.15,645.09 871.98,639.50 C873.09,637.30 874.67,634.63 875.50,633.56 C876.32,632.49 877.00,630.80 877.00,629.81 C877.00,628.81 877.38,628.00 877.84,628.00 C878.92,628.00 881.00,623.45 881.00,621.08 C881.00,620.07 881.67,618.68 882.50,618.00 C883.33,617.32 884.00,615.87 884.00,614.78 C884.00,613.69 884.64,611.38 885.43,609.65 C889.26,601.21 892.00,593.02 892.00,590.00 C892.00,588.16 892.66,585.93 893.46,585.05 C894.73,583.64 896.30,576.50 901.06,550.59 C902.82,541.01 903.37,517.41 902.04,508.50 C901.38,504.10 900.63,498.25 900.37,495.50 C899.42,485.56 896.01,469.65 893.50,463.50 C890.53,456.20 887.68,447.20 887.26,443.79 C887.00,441.75 886.17,439.55 885.40,438.92 C884.63,438.28 884.00,436.06 C884.00,433.95 878.50,423.66 876.48,421.99 C875.67,421.31 875.00,420.07 875.00,419.22 C875.00,418.38 873.31,414.79 871.25,411.24 C869.19,407.69 866.78,403.43 865.91,401.76 C864.09,398.29 861.71,395.10 857.75,390.82 C856.24,389.18 855.00,387.23 855.00,386.48 C855.00,385.73 854.53,384.83 853.96,384.47 C853.39,384.12 851.88,382.18 850.60,380.17 C849.32,378.15 845.97,374.02 843.15,371.00 C840.33,367.98 837.77,364.74 837.46,363.80 C837.15,362.87 836.02,361.82 834.95,361.48 C833.88,361.14 833.00,360.55 833.00,360.17 C833.00,359.10 820.98,346.87 816.35,343.25 C814.07,341.46 809.80,337.71 806.85,334.92 C809.80,337.71 814.07,341.46 816.35,343.25 C820.98,346.87 833.00,359.10 833.00,360.17 C833.00,360.55 833.88,361.14 834.95,361.48 C836.02,361.82 837.15,362.87 837.46,363.80 C837.77,364.74 840.33,367.98 843.15,371.00 C845.97,374.02 849.32,378.15 850.60,380.17 C851.88,382.18 853.39,384.12 853.96,384.47 C854.53,384.83 855.00,385.73 855.00,386.48 C855.00,387.23 856.24,389.18 857.75,390.82 C861.71,395.10 864.09,398.29 865.91,401.76 C866.78,403.43 869.19,407.69 871.25,411.24 C873.31,414.79 875.00,418.38 875.00,419.22 C875.00,420.07 875.67,421.31 876.48,421.99 C878.50,423.66 884.00,433.95 884.00,436.06 C884.00,436.99 884.63,438.28 885.40,438.92 C886.17,439.55 887.00,441.75 887.26,443.79 C887.68,447.20 890.53,456.20 893.50,463.50 C896.01,469.65 899.42,485.56 900.37,495.50 C900.63,498.25 901.38,504.10 902.04,508.50 C903.37,517.41 902.82,541.01 901.06,550.59 C896.30,576.50 894.73,583.64 893.46,585.05 C892.66,585.93 892.00,588.16 892.00,590.00 C892.00,593.02 889.26,601.21 885.43,609.65 C884.64,611.38 884.00,613.69 884.00,614.78 C884.00,615.87 883.33,617.32 882.50,618.00 C881.67,618.68 881.00,620.07 881.00,621.08 C881.00,623.45 878.92,628.00 877.84,628.00 C877.38,628.00 877.00,628.81 877.00,629.81 C877.00,630.80 876.32,632.49 875.50,633.56 C874.67,634.63 873.09,637.30 871.98,639.50 C869.15,645.09 867.57,647.71 865.78,649.74 C864.93,650.71 863.93,652.51 863.55,653.75 C863.17,654.99 862.49,656.00 862.04,656.00 C861.58,656.00 859.99,658.33 858.51,661.17 C857.02,664.01 855.17,666.97 854.40,667.74 C853.63,668.51 853.00,669.79 853.00,670.57 C853.00,671.36 852.66,672.00 852.25,672.01 C851.84,672.01 850.38,673.70 849.00,675.76 C847.62,677.82 845.49,680.32 844.25,681.32 C843.01,682.33 842.00,683.82 842.00,684.65 C842.00,686.77 818.45,712.71 814.83,714.59 C813.17,715.44 811.20,717.67 810.41,719.57 C809.62,721.45 808.58,723.00 808.09,723.00 C807.60,723.00 802.26,727.91 796.22,733.91 C790.18,739.91 783.84,745.55 782.12,746.44 C780.40,747.33 779.00,748.43 779.00,748.90 C779.00,749.37 775.64,752.07 771.54,754.91 C767.43,757.75 763.81,760.50 763.48,761.04 C763.15,761.57 759.42,764.24 755.19,766.97 C750.96,769.70 746.60,772.61 745.50,773.45 C744.40,774.28 742.38,775.82 741.00,776.85 C739.62,777.89 737.07,779.05 735.32,779.43 C733.57,779.82 731.54,780.85 730.82,781.73 C729.52,783.31 721.35,788.85 715.50,792.12 C709.82,795.30 685.83,807.00 684.99,807.00 C684.54,807.00 682.66,807.75 680.83,808.67 C674.62,811.78 674.03,812.00 671.76,812.02 C670.52,812.03 667.15,813.33 664.27,814.92 C661.39,816.51 656.66,818.34 653.77,819.00 C650.87,819.66 647.15,820.78 645.50,821.50 C640.33,823.75 625.33,828.00 622.54,828.00 C621.07,828.00 618.89,828.53 617.68,829.18 C614.04,831.13 609.18,832.07 575.00,837.35 C566.49,838.67 557.56,839.29 531.50,840.37 C527.10,840.55 518.55,840.32 512.50,839.85 Z" fill="#25D366"/>
</g>
</svg>