<svg width="48" height="48" viewBox="0 0 48 48" fill="none" xmlns="http://www.w3.org/2000/svg">
<rect x="0.5" y="0.5" width="47" height="47" rx="3.5" fill="#F4F4F5"/>
<rect x="0.5" y="0.5" width="47" height="47" rx="3.5" stroke="#E4E4E7"/>
<path d="M27.05 19.85C26.85 19.35 26.5542 18.9583 26.1625 18.675C25.7708 18.3916 25.3 18.25 24.75 18.25C24.45 18.25 24.1583 18.2916 23.875 18.375C23.5917 18.4583 23.3333 18.6166 23.1 18.85L21.65 17.4C21.8833 17.1666 22.2 16.9541 22.6 16.7625C23 16.5708 23.3667 16.45 23.7 16.4V14.3H25.7V16.35C26.45 16.5 27.1083 16.8041 27.675 17.2625C28.2417 17.7208 28.6667 18.3166 28.95 19.05L27.05 19.85ZM32.5 33.9L27.9 29.3C27.65 29.55 27.3083 29.7541 26.875 29.9125C26.4417 30.0708 26.05 30.1666 25.7 30.2V32.3H23.7V30.15C22.7667 29.9166 21.9875 29.4916 21.3625 28.875C20.7375 28.2583 20.2833 27.4833 20 26.55L22 25.75C22.2 26.45 22.5375 27.05 23.0125 27.55C23.4875 28.05 24.1167 28.3 24.9 28.3C25.2 28.3 25.475 28.2625 25.725 28.1875C25.975 28.1125 26.2167 28 26.45 27.85L14.1 15.5L15.5 14.1L33.9 32.5L32.5 33.9Z" fill="#25D366"/>
</svg>
