<svg xmlns="http://www.w3.org/2000/svg" width="1024" height="1024" viewBox="0 0 1024 1024">
<g>
<path d="M 566.50 840.41 C551.91,841.91 522.50,843.00 513.00,842.39 C436.46,837.49 373.60,816.78 313.50,776.67 C286.49,758.64 267.64,742.73 241.66,716.01 C185.28,658.03 151.55,590.69 142.48,518.00 C140.27,500.26 140.25,468.03 142.43,450.67 C150.78,384.28 179.46,327.71 229.30,279.35 C274.34,235.63 335.15,206.53 404.42,195.52 C457.33,187.11 524.49,188.47 575.50,198.99 C612.27,206.57 643.29,218.04 651.44,227.06 C655.17,231.19 655.65,233.15 654.00,237.49 C652.64,241.07 646.04,243.92 624.99,250.03 C594.08,259.00 579.01,264.76 558.00,275.66 C480.63,315.77 421.81,392.40 408.05,471.00 C395.99,539.92 415.38,609.96 462.05,666.01 C487.02,696.01 514.39,717.89 546.50,733.55 C554.75,737.57 566.22,742.45 572.00,744.39 C615.57,759.06 658.63,759.72 702.80,746.38 C767.70,726.77 830.10,673.10 861.37,610.00 C868.98,594.65 873.31,582.85 877.35,566.50 C881.84,548.31 882.49,542.46 882.47,520.00 C882.45,502.10 882.08,496.57 880.26,487.00 C871.29,439.89 849.46,399.92 813.86,365.43 C789.59,341.92 771.84,332.06 753.72,332.02 C743.93,332.00 737.93,334.19 732.86,339.66 C727.12,345.84 725.50,350.64 725.50,361.50 C725.50,370.63 725.76,372.00 728.48,377.29 C736.58,393.03 746.07,400.66 777.74,416.89 C802.77,429.72 808.24,433.07 818.24,441.69 C832.41,453.90 842.65,470.57 847.63,489.50 C851.18,503.02 851.31,520.90 847.97,535.00 C845.51,545.36 840.49,558.15 836.52,564.15 C835.13,566.24 834.00,568.23 834.00,568.56 C834.00,569.82 821.81,584.00 817.27,588.01 C803.45,600.23 785.27,609.11 763.61,614.20 C756.17,615.95 751.20,616.36 736.50,616.42 C725.17,616.47 715.91,616.00 711.50,615.15 C671.12,607.35 640.52,591.42 611.36,563.04 C594.01,546.15 581.47,528.87 571.05,507.50 C539.95,443.73 548.10,373.97 591.96,328.64 C608.27,311.79 622.57,302.04 641.41,294.94 C658.73,288.42 668.58,286.73 689.50,286.70 C709.91,286.67 720.14,288.28 739.47,294.56 C772.71,305.36 811.45,331.68 838.10,361.56 C847.92,372.58 849.46,374.43 855.31,382.25 C880.49,415.90 895.86,452.37 902.60,494.50 C904.99,509.40 904.99,539.17 902.60,555.00 C895.85,599.82 878.99,638.88 848.65,680.00 C830.70,704.34 809.15,726.75 779.99,751.38 C778.61,752.55 773.21,756.70 767.99,760.62 C707.82,805.74 639.13,832.94 566.50,840.41 ZM 512.50 839.85 C518.55,840.32 527.10,840.55 531.50,840.37 C557.56,839.29 566.49,838.67 575.00,837.35 C609.18,832.07 614.04,831.13 617.68,829.18 C618.89,828.53 621.07,828.00 622.54,828.00 C625.33,828.00 640.33,823.75 645.50,821.50 C647.15,820.78 650.87,819.66 653.77,819.00 C656.66,818.34 661.39,816.51 664.27,814.92 C667.15,813.33 670.52,812.03 671.76,812.02 C674.03,812.00 674.62,811.78 680.83,808.67 C682.66,807.75 684.54,807.00 684.99,807.00 C685.83,807.00 709.82,795.30 715.50,792.12 C721.35,788.85 729.52,783.31 730.82,781.73 C731.54,780.85 733.57,779.82 735.32,779.43 C737.07,779.05 739.62,777.89 741.00,776.85 C742.38,775.82 744.40,774.28 745.50,773.45 C746.60,772.61 750.96,769.70 755.19,766.97 C759.42,764.24 763.15,761.57 763.48,761.04 C763.81,760.50 767.43,757.75 771.54,754.91 C775.64,752.07 779.00,749.37 779.00,748.90 C779.00,748.43 780.40,747.33 782.12,746.44 C783.84,745.55 790.18,739.91 796.22,733.91 C802.26,727.91 807.60,723.00 808.09,723.00 C808.58,723.00 809.62,721.45 810.41,719.57 C811.20,717.67 813.17,715.44 814.83,714.59 C818.45,712.71 842.00,686.77 842.00,684.65 C842.00,683.82 843.01,682.33 844.25,681.32 C845.49,680.32 847.62,677.82 849.00,675.76 C850.38,673.70 851.84,672.01 852.25,672.01 C852.66,672.00 853.00,671.36 853.00,670.57 C853.00,669.79 853.63,668.51 854.40,667.74 C855.17,666.97 857.02,664.01 858.51,661.17 C859.99,658.33 861.58,656.00 862.04,656.00 C862.49,656.00 863.17,654.99 863.55,653.75 C863.93,652.51 864.93,650.71 865.78,649.74 C867.57,647.71 869.15,645.09 871.98,639.50 C873.09,637.30 874.67,634.63 875.50,633.56 C876.32,632.49 877.00,630.80 877.00,629.81 C877.00,628.81 877.38,628.00 877.84,628.00 C878.92,628.00 881.00,623.45 881.00,621.08 C881.00,620.07 881.67,618.68 882.50,618.00 C883.33,617.32 884.00,615.87 884.00,614.78 C884.00,613.69 884.64,611.38 885.43,609.65 C889.26,601.21 892.00,593.02 892.00,590.00 C892.00,588.16 892.66,585.93 893.46,585.05 C894.73,583.64 896.30,576.50 901.06,550.59 C902.82,541.01 903.37,517.41 902.04,508.50 C901.38,504.10 900.63,498.25 900.37,495.50 C899.42,485.56 896.01,469.65 893.50,463.50 C890.53,456.20 887.68,447.20 887.26,443.79 C887.00,441.75 886.17,439.55 885.40,438.92 C884.63,438.28 884.00,436.99 884.00,436.06 C884.00,433.95 878.50,423.66 876.48,421.99 C875.67,421.31 875.00,420.07 875.00,419.22 C875.00,418.38 873.31,414.79 871.25,411.24 C869.19,407.69 866.78,403.43 865.91,401.76 C864.09,398.29 861.71,395.10 857.75,390.82 C856.24,389.18 855.00,387.23 855.00,386.48 C855.00,385.73 854.53,384.83 853.96,384.47 C853.39,384.12 851.88,382.18 850.60,380.17 C849.32,378.15 845.97,374.02 843.15,371.00 C840.33,367.98 837.77,364.74 837.46,363.80 C837.15,362.87 836.02,361.82 834.95,361.48 C833.88,361.14 833.00,360.55 833.00,360.17 C833.00,359.10 820.98,346.87 816.35,343.25 C814.07,341.46 809.80,337.71 806.85,334.92 C803.91,332.13 800.14,329.24 798.48,328.51 C796.82,327.77 794.61,326.23 793.57,325.08 C792.54,323.94 791.23,323.00 790.66,323.00 C790.09,323.00 788.70,322.18 787.56,321.17 C784.54,318.50 768.20,309.00 766.62,309.00 C765.88,309.00 764.11,308.08 762.68,306.96 C760.25,305.05 752.71,301.33 750.50,300.96 C749.95,300.86 747.83,299.93 745.79,298.89 C743.75,297.85 741.22,297.00 740.16,297.00 C739.11,297.00 737.68,296.33 737.00,295.50 C736.28,294.63 734.10,294.00 731.83,294.00 C729.67,294.00 726.58,293.32 724.96,292.48 C723.30,291.62 720.97,291.22 719.62,291.56 C718.27,291.90 715.94,291.51 714.33,290.67 C707.58,287.18 674.19,286.81 664.50,290.12 C662.85,290.68 659.47,291.52 657.00,291.99 C649.85,293.33 632.02,299.79 630.46,301.60 C629.89,302.26 628.31,302.96 626.96,303.15 C625.59,303.35 624.06,304.50 623.51,305.75 C622.88,307.18 621.66,308.00 620.13,308.00 C618.69,308.00 616.42,309.39 614.44,311.50 C612.62,313.42 610.66,315.00 610.07,315.00 C607.55,315.00 588.03,334.10 585.45,339.10 C584.62,340.70 583.52,342.00 583.00,342.00 C582.48,342.00 581.34,343.37 580.47,345.05 C579.60,346.73 578.21,348.87 577.38,349.80 C574.97,352.52 571.26,358.59 570.46,361.15 C570.06,362.44 568.89,364.57 567.86,365.88 C566.84,367.20 566.00,369.01 566.00,369.91 C566.00,370.82 564.66,374.69 563.03,378.53 C561.39,382.36 560.04,386.50 560.03,387.73 C560.01,388.96 559.38,391.66 558.61,393.73 C557.07,397.93 555.34,409.39 554.43,421.48 C554.10,425.87 553.70,429.69 553.53,429.98 C553.37,430.27 553.64,433.20 554.14,436.50 C554.63,439.80 555.24,444.57 555.49,447.11 C556.12,453.46 558.81,469.88 559.37,470.79 C559.63,471.21 560.13,473.54 560.50,475.99 C560.86,478.43 561.55,481.15 562.02,482.04 C562.49,482.92 563.87,486.54 565.07,490.07 C566.28,493.61 567.86,497.62 568.59,499.00 C569.31,500.38 571.09,503.98 572.54,507.00 C575.78,513.79 579.02,519.26 581.28,521.76 C582.23,522.80 583.00,524.31 583.00,525.11 C583.00,526.89 590.43,536.91 593.17,538.83 C594.27,539.60 596.02,542.21 597.06,544.63 C598.25,547.42 599.87,549.38 601.47,549.99 C602.86,550.52 604.00,551.55 604.00,552.29 C604.00,553.88 622.54,572.00 624.17,572.00 C624.80,572.00 627.69,574.25 630.59,577.00 C633.50,579.75 636.58,582.00 637.44,582.00 C638.30,582.00 639.00,582.44 639.00,582.98 C639.00,583.52 640.91,584.93 643.25,586.13 C645.58,587.32 647.94,588.81 648.50,589.45 C649.84,591.00 657.73,596.00 658.84,596.00 C659.32,596.00 662.74,597.58 666.43,599.50 C670.12,601.42 673.82,603.00 674.64,603.00 C675.46,603.00 678.46,603.95 681.31,605.10 C684.17,606.26 687.40,607.55 688.50,607.97 C691.34,609.05 698.57,610.86 705.00,612.09 C708.03,612.66 712.56,613.58 715.07,614.12 C717.59,614.65 726.43,615.03 734.73,614.95 C751.44,614.79 761.36,613.24 776.78,608.36 C779.14,607.61 781.73,607.00 782.53,607.00 C783.34,607.00 784.00,606.57 784.00,606.04 C784.00,605.51 785.81,604.54 788.01,603.88 C790.22,603.22 792.52,602.07 793.13,601.34 C793.75,600.60 794.73,600.00 795.32,600.00 C796.49,600.00 809.34,591.59 812.05,589.06 C812.96,588.20 815.15,586.38 816.91,585.00 C820.33,582.32 830.04,570.69 832.07,566.84 C832.74,565.55 834.36,563.23 835.65,561.67 C836.94,560.12 838.00,557.85 838.00,556.62 C838.00,555.40 838.53,553.87 839.17,553.23 C842.06,550.34 847.47,530.58 848.41,519.50 C848.78,515.10 848.65,507.67 848.12,503.00 C847.03,493.47 840.76,473.19 837.88,469.86 C836.85,468.67 836.00,467.20 835.99,466.60 C835.98,465.12 827.44,453.83 825.53,452.75 C824.69,452.28 824.00,451.30 824.00,450.56 C824.00,449.30 813.31,440.09 806.27,435.29 C798.83,430.21 781.88,421.05 779.88,421.02 C779.00,421.01 777.20,420.16 775.88,419.14 C774.57,418.11 772.38,416.93 771.00,416.51 C769.62,416.08 767.15,414.78 765.51,413.62 C763.86,412.45 759.60,410.00 756.02,408.16 C752.45,406.32 748.17,403.56 746.52,402.01 C744.86,400.46 740.86,396.79 737.63,393.85 C733.14,389.77 730.84,386.58 727.91,380.38 C722.49,368.94 721.64,364.38 723.18,355.09 C724.98,344.28 728.41,339.30 738.00,333.55 C742.71,330.73 744.72,330.18 752.00,329.70 C758.26,329.29 761.16,329.51 763.00,330.54 C764.38,331.30 766.93,331.95 768.68,331.96 C770.43,331.98 772.45,332.57 773.18,333.26 C773.91,333.95 776.97,335.78 780.00,337.34 C790.65,342.81 801.55,351.06 814.21,363.22 C821.24,369.97 827.25,376.26 827.55,377.20 C827.85,378.13 828.94,379.16 829.95,379.49 C830.97,379.81 833.53,382.64 835.63,385.79 C839.77,391.96 848.22,403.10 851.55,406.79 C852.69,408.05 854.22,410.75 854.94,412.79 C855.67,414.83 857.94,419.42 859.99,423.00 C862.04,426.58 864.02,430.76 864.39,432.29 C864.76,433.83 865.44,434.85 865.90,434.56 C866.37,434.27 867.03,435.77 867.37,437.89 C867.70,440.01 868.66,442.30 869.49,442.99 C870.32,443.68 871.00,445.06 871.00,446.06 C871.00,447.06 871.45,448.16 872.00,448.50 C872.55,448.84 873.00,450.47 873.00,452.12 C873.00,453.78 873.46,456.00 874.03,457.05 C875.53,459.86 879.86,475.17 880.57,480.19 C880.90,482.56 881.84,486.61 882.65,489.18 C883.70,492.53 884.17,499.51 884.31,513.68 C884.55,538.40 884.26,543.38 881.97,554.00 C880.96,558.67 879.70,564.53 879.17,567.00 C878.64,569.47 877.47,573.97 876.56,577.00 C875.66,580.03 874.46,584.30 873.90,586.50 C873.34,588.70 872.46,590.93 871.94,591.45 C871.42,591.97 871.00,593.15 871.00,594.08 C871.00,595.00 870.36,596.29 869.58,596.94 C868.80,597.58 867.86,599.85 867.50,601.98 C867.14,604.10 866.21,606.09 865.43,606.39 C864.64,606.69 864.00,608.02 864.00,609.33 C864.00,610.65 863.16,612.80 862.14,614.12 C861.11,615.43 859.98,617.45 859.61,618.62 C859.25,619.78 858.06,621.54 856.97,622.52 C855.89,623.51 855.00,625.34 855.00,626.60 C855.00,627.85 854.54,629.16 853.99,629.51 C853.43,629.85 851.44,632.53 849.56,635.47 C847.69,638.40 844.99,642.09 843.58,643.65 C842.17,645.22 839.77,648.38 838.26,650.67 C836.74,652.97 834.38,656.12 833.00,657.67 C828.04,663.29 821.48,671.54 820.41,673.50 C819.81,674.60 818.06,676.12 816.53,676.87 C814.99,677.62 813.26,679.51 812.67,681.06 C812.06,682.69 810.61,684.13 809.25,684.47 C807.95,684.80 806.01,686.56 804.94,688.38 C803.86,690.20 801.36,692.55 799.39,693.60 C797.41,694.64 795.40,696.51 794.92,697.75 C794.44,698.99 793.22,700.00 792.21,700.00 C791.19,700.00 789.42,701.01 788.28,702.25 C787.13,703.49 784.69,705.52 782.85,706.76 C778.19,709.91 767.20,717.78 763.00,720.97 C759.11,723.93 747.34,730.00 745.50,730.00 C744.84,730.00 743.50,730.90 742.50,732.00 C741.50,733.10 739.89,734.00 738.90,734.00 C737.92,734.00 736.86,734.42 736.54,734.93 C735.50,736.62 725.68,740.78 714.00,744.49 C707.67,746.49 701.31,748.78 699.85,749.57 C698.39,750.35 696.03,751.00 694.61,751.00 C691.18,751.00 683.45,752.86 678.53,754.88 C675.13,756.27 669.52,756.50 638.99,756.50 C608.03,756.50 603.09,756.29 600.96,754.90 C599.61,754.01 596.92,752.98 595.00,752.61 C593.08,752.23 589.47,751.54 587.00,751.08 C584.53,750.61 580.92,749.66 579.00,748.97 C577.08,748.28 571.00,746.16 565.50,744.26 C554.26,740.39 536.64,732.17 530.32,727.86 C528.02,726.29 525.46,725.00 524.63,725.00 C523.80,725.00 522.83,724.53 522.47,723.96 C522.12,723.39 520.18,721.87 518.17,720.58 C516.15,719.29 513.42,717.28 512.10,716.12 C510.78,714.95 509.27,714.00 508.75,714.00 C508.23,714.00 506.55,712.76 505.03,711.25 C498.25,704.54 495.33,702.00 494.39,702.00 C493.83,702.00 492.38,700.65 491.16,699.00 C489.94,697.35 488.05,696.00 486.97,696.00 C485.89,696.00 485.00,695.62 485.00,695.16 C485.00,694.69 482.41,691.63 479.25,688.36 C472.48,681.35 462.27,669.95 458.32,665.00 C456.79,663.08 454.96,661.14 454.27,660.70 C453.57,660.26 452.33,658.61 451.51,657.03 C450.70,655.45 448.31,652.16 446.20,649.73 C444.09,647.30 441.74,643.77 440.97,641.90 C440.20,640.03 438.54,636.92 437.27,635.00 C433.44,629.18 433.20,628.76 429.16,621.00 C427.02,616.88 424.93,612.38 424.51,611.00 C424.10,609.62 423.22,607.83 422.55,607.00 C421.88,606.17 420.53,603.25 419.54,600.50 C418.55,597.75 417.19,594.15 416.51,592.50 C415.82,590.85 414.53,586.91 413.63,583.75 C412.73,580.59 411.31,575.64 410.47,572.75 C409.63,569.86 408.52,565.13 407.99,562.22 C407.47,559.32 406.65,556.17 406.17,555.22 C404.17,551.29 402.74,524.31 403.39,503.00 C404.20,476.45 404.73,470.36 406.56,466.35 C407.35,464.62 408.00,462.21 408.00,461.00 C408.00,457.35 413.18,438.72 415.92,432.50 C416.41,431.40 418.06,427.35 419.58,423.50 C421.11,419.65 422.73,416.07 423.18,415.55 C423.63,415.03 424.00,413.95 424.00,413.15 C424.00,411.33 428.99,400.96 430.72,399.18 C431.42,398.45 432.00,397.27 432.00,396.54 C432.00,395.82 433.80,392.53 436.00,389.24 C438.20,385.94 440.00,382.60 440.00,381.80 C440.00,381.00 441.12,379.29 442.50,378.00 C443.88,376.71 445.00,375.23 445.00,374.71 C445.00,374.19 446.34,372.13 447.98,370.13 C453.89,362.91 455.02,361.44 457.61,357.50 C459.05,355.30 460.86,352.83 461.61,352.00 C464.99,348.32 468.00,344.12 468.00,343.08 C468.00,342.46 469.05,341.48 470.33,340.89 C471.62,340.31 473.43,338.54 474.36,336.96 C475.29,335.39 477.51,333.08 479.28,331.84 C483.36,328.97 491.19,321.11 492.51,318.55 C493.06,317.47 495.15,315.73 497.15,314.67 C499.15,313.62 501.28,311.69 501.87,310.38 C502.47,309.07 503.65,308.00 504.49,308.00 C505.33,308.00 507.99,306.15 510.39,303.89 C512.79,301.63 516.32,298.82 518.23,297.64 C522.58,294.97 530.07,289.51 535.24,285.25 C537.41,283.46 539.86,282.00 540.69,282.00 C541.52,282.00 543.39,281.16 544.85,280.13 C546.31,279.10 550.88,276.62 555.00,274.63 C559.12,272.64 563.17,270.60 564.00,270.11 C566.56,268.59 576.27,264.33 581.24,262.55 C583.85,261.61 586.24,260.43 586.55,259.92 C586.86,259.41 588.05,259.00 589.20,259.00 C591.13,259.00 596.58,256.79 603.26,253.31 C604.78,252.52 606.87,252.14 607.91,252.47 C608.94,252.80 611.30,252.44 613.14,251.67 C616.26,250.38 622.18,248.49 640.79,242.89 C648.32,240.62 653.00,236.85 653.00,233.05 C653.00,230.88 650.49,228.58 649.07,229.45 C648.52,229.80 647.78,228.99 647.45,227.66 C646.98,225.77 644.47,224.07 636.17,220.01 C630.30,217.13 624.72,214.38 623.76,213.89 C622.81,213.40 621.01,212.99 619.76,212.98 C618.52,212.96 614.80,211.84 611.50,210.48 C608.20,209.12 604.70,208.01 603.73,208.00 C602.76,208.00 599.19,206.88 595.81,205.50 C592.42,204.12 588.61,203.00 587.34,203.00 C586.07,203.00 583.11,202.55 580.76,202.01 C576.68,201.06 565.75,198.97 554.00,196.88 C510.85,189.23 434.85,190.24 394.50,198.99 C389.55,200.07 381.90,201.67 377.50,202.55 C373.10,203.44 368.60,204.51 367.50,204.94 C362.71,206.81 358.18,208.00 355.83,208.00 C354.44,208.00 352.27,208.90 351.00,210.00 C349.73,211.10 347.67,212.00 346.43,212.00 C345.18,212.00 341.92,213.12 339.19,214.50 C336.45,215.88 332.87,217.00 331.23,217.00 C329.59,217.00 327.68,217.68 327.00,218.50 C326.32,219.32 325.15,220.00 324.41,220.00 C322.51,220.00 311.91,224.95 310.24,226.61 C309.48,227.38 308.32,228.00 307.66,228.00 C307.01,228.00 304.79,228.90 302.74,230.00 C300.69,231.10 298.36,232.00 297.58,232.00 C296.79,232.00 295.51,232.63 294.74,233.40 C293.98,234.17 290.59,236.19 287.21,237.89 C283.84,239.60 280.61,241.86 280.05,242.91 C279.48,243.97 277.60,245.15 275.87,245.53 C272.50,246.27 260.74,254.31 253.33,260.94 C250.84,263.17 248.36,265.00 247.83,265.00 C246.59,265.00 238.46,272.58 224.24,287.00 C206.82,304.67 206.00,305.55 206.00,306.64 C206.00,307.19 204.85,308.73 203.44,310.05 C202.04,311.37 199.59,314.73 198.00,317.50 C196.41,320.27 193.28,324.53 191.04,326.95 C188.81,329.38 185.88,333.68 184.53,336.52 C183.19,339.36 181.40,342.25 180.55,342.96 C179.70,343.67 179.00,344.67 179.00,345.19 C179.00,345.71 177.88,347.61 176.50,349.41 C175.12,351.21 174.00,353.63 174.00,354.79 C174.00,355.94 173.54,357.17 172.97,357.52 C172.40,357.87 170.99,360.26 169.83,362.83 C168.67,365.40 166.66,369.83 165.36,372.69 C164.06,375.54 163.00,378.64 163.00,379.58 C163.00,380.51 162.40,381.78 161.66,382.39 C160.93,383.00 159.55,386.42 158.59,390.00 C157.64,393.58 156.21,397.77 155.43,399.33 C154.64,400.89 154.00,403.37 154.00,404.85 C154.00,406.32 153.07,409.26 151.94,411.37 C150.81,413.49 149.62,417.53 149.30,420.36 C148.99,423.19 148.29,426.06 147.75,426.74 C147.21,427.42 147.07,429.55 147.43,431.46 C147.84,433.68 147.57,435.96 146.68,437.72 C142.68,445.65 141.24,487.03 144.02,514.28 C145.72,530.92 146.57,535.84 149.57,546.50 C150.34,549.25 151.41,554.08 151.95,557.23 C152.48,560.37 153.56,564.20 154.34,565.73 C155.13,567.25 156.36,571.20 157.08,574.50 C157.80,577.80 159.42,582.59 160.69,585.15 C161.96,587.70 163.00,590.28 163.00,590.88 C163.00,591.79 166.10,600.28 169.09,607.50 C169.54,608.60 170.58,611.19 171.40,613.25 C172.23,615.31 173.34,617.00 173.87,617.00 C174.40,617.00 175.16,618.46 175.55,620.25 C175.94,622.04 177.10,624.57 178.13,625.88 C179.16,627.20 180.00,628.62 180.00,629.05 C180.00,630.60 191.18,649.56 193.56,652.05 C194.90,653.46 196.00,655.30 196.00,656.15 C196.00,657.00 196.90,658.50 198.00,659.50 C199.10,660.50 200.00,661.86 200.00,662.53 C200.00,663.20 200.72,664.35 201.61,665.09 C202.49,665.82 204.95,668.91 207.08,671.96 C209.20,675.01 212.36,679.53 214.10,682.00 C215.83,684.47 220.04,689.65 223.44,693.50 C226.84,697.35 230.35,701.57 231.24,702.87 C236.27,710.24 270.81,742.92 275.63,744.86 C277.48,745.60 279.00,746.58 279.00,747.03 C279.00,747.47 280.64,749.34 282.64,751.17 C284.64,753.00 286.99,755.29 287.86,756.25 C288.73,757.21 289.85,758.00 290.35,758.00 C290.85,758.00 292.98,759.46 295.09,761.25 C304.31,769.08 305.54,770.00 306.74,770.00 C307.43,770.00 308.00,770.42 308.00,770.93 C308.00,771.45 309.01,772.19 310.25,772.58 C311.49,772.97 314.48,774.80 316.89,776.65 C319.31,778.49 322.09,780.00 323.06,780.00 C324.04,780.00 325.66,781.08 326.67,782.39 C327.67,783.71 331.42,786.33 335.00,788.22 C338.58,790.12 343.30,792.71 345.50,793.98 C352.53,798.06 368.97,806.00 370.37,806.00 C371.12,806.00 372.80,806.81 374.12,807.81 C375.43,808.80 378.52,810.19 381.00,810.90 C383.48,811.61 388.29,813.51 391.71,815.12 C395.13,816.73 399.85,818.45 402.21,818.95 C404.57,819.44 411.23,821.48 417.00,823.47 C422.77,825.47 429.75,827.35 432.50,827.67 C435.25,827.98 438.40,828.79 439.50,829.45 C442.23,831.12 445.36,831.96 453.00,833.10 C463.23,834.62 469.72,835.63 480.74,837.39 C486.37,838.30 493.34,839.03 496.24,839.01 C499.13,839.00 506.45,839.38 512.50,839.85 Z" fill="#25D366"/>
<path d="M 512.50 839.85 C506.45,839.38 499.13,839.00 496.24,839.01 C493.34,839.03 486.37,838.30 480.74,837.39 C469.72,835.63 463.23,834.62 453.00,833.10 C445.36,831.96 442.23,831.12 439.50,829.45 C438.40,828.79 435.25,827.98 432.50,827.67 C429.75,827.35 422.77,825.47 417.00,823.47 C411.23,821.48 404.57,819.44 402.21,818.95 C399.85,818.45 395.13,816.73 391.71,815.12 C388.29,813.51 383.48,811.61 381.00,810.90 C378.52,810.19 375.43,808.80 374.12,807.81 C372.80,806.81 371.12,806.00 370.37,806.00 C368.97,806.00 352.53,798.06 345.50,793.98 C343.30,792.71 338.58,790.12 335.00,788.22 C331.42,786.33 327.67,783.71 326.67,782.39 C325.66,781.08 324.04,780.00 323.06,780.00 C322.09,780.00 319.31,778.49 316.89,776.65 C314.48,774.80 311.49,772.97 310.25,772.58 C309.01,772.19 308.00,771.45 308.00,770.93 C308.00,770.42 307.43,770.00 306.74,770.00 C305.54,770.00 304.31,769.08 295.09,761.25 C292.98,759.46 290.85,758.00 290.35,758.00 C289.85,758.00 288.73,757.21 287.86,756.25 C286.99,755.29 284.64,753.00 282.64,751.17 C280.64,749.34 279.00,747.47 279.00,747.03 C279.00,746.58 277.48,745.60 275.63,744.86 C270.81,742.92 236.27,710.24 231.24,702.87 C230.35,701.57 226.84,697.35 223.44,693.50 C220.04,689.65 215.83,684.47 214.10,682.00 C212.36,679.53 209.20,675.01 207.08,671.96 C204.95,668.91 202.49,665.82 201.61,665.09 C200.72,664.35 200.00,663.20 200.00,662.53 C200.00,661.86 199.10,660.50 198.00,659.50 C196.90,658.50 196.00,657.00 196.00,656.15 C196.00,655.30 194.90,653.46 193.56,652.05 C191.18,649.56 180.00,630.60 180.00,629.05 C180.00,628.62 179.16,627.20 178.13,625.88 C177.10,624.57 175.94,622.04 175.55,620.25 C175.16,618.46 174.40,617.00 173.87,617.00 C173.34,617.00 172.23,615.31 171.40,613.25 C170.58,611.19 169.54,608.60 169.09,607.50 C166.10,600.28 163.00,591.79 163.00,590.88 C163.00,590.28 161.96,587.70 160.69,585.15 C159.42,582.59 157.80,577.80 157.08,574.50 C156.36,571.20 155.13,567.25 154.34,565.73 C153.56,564.20 152.48,560.37 151.95,557.23 C151.41,554.08 150.34,549.25 149.57,546.50 C146.57,535.84 145.72,530.92 144.02,514.28 C141.24,487.03 142.68,445.65 146.68,437.72 C147.57,435.96 147.84,433.68 147.43,431.46 C147.07,429.55 147.21,427.42 147.75,426.74 C148.29,426.06 148.99,423.19 149.30,420.36 C149.62,417.53 150.81,413.49 151.94,411.37 C153.07,409.26 154.00,406.32 154.00,404.85 C154.00,403.37 154.64,400.89 155.43,399.33 C156.21,397.77 157.64,393.58 158.59,390.00 C159.55,386.42 160.93,383.00 161.66,382.39 C162.40,381.78 163.00,380.51 163.00,379.58 C163.00,378.64 164.06,375.54 165.36,372.69 C166.66,369.83 168.67,365.40 169.83,362.83 C170.99,360.26 172.40,357.87 172.97,357.52 C173.54,357.17 174.00,355.94 174.00,354.79 C174.00,353.63 175.12,351.21 176.50,349.41 C177.88,347.61 179.00,345.71 179.00,345.19 C179.00,344.67 179.70,343.67 180.55,342.96 C181.40,342.25 183.19,339.36 184.53,336.52 C185.88,333.68 188.81,329.38 191.04,326.95 C193.28,324.53 196.41,320.27 198.00,317.50 C199.59,314.73 202.04,311.37 203.44,310.05 C204.85,308.73 206.00,307.19 206.00,306.64 C206.00,305.55 206.82,304.67 224.24,287.00 C238.46,272.58 246.59,265.00 247.83,265.00 C248.36,265.00 250.84,263.17 253.33,260.94 C260.74,254.31 272.50,246.27 275.87,245.53 C277.60,245.15 279.48,243.97 280.05,242.91 C280.61,241.86 283.84,239.60 287.21,237.89 C290.59,236.19 293.98,234.17 294.74,233.40 C295.51,232.63 296.79,232.00 297.58,232.00 C298.36,232.00 300.69,231.10 302.74,230.00 C304.79,228.90 307.01,228.00 307.66,228.00 C308.32,228.00 309.48,227.38 310.24,226.61 C311.91,224.95 322.51,220.00 324.41,220.00 C325.15,220.00 326.32,219.32 327.00,218.50 C327.68,217.68 329.59,217.00 331.23,217.00 C332.87,217.00 336.45,215.88 339.19,214.50 C341.92,213.12 345.18,212.00 346.43,212.00 C347.67,212.00 349.73,211.10 351.00,210.00 C352.27,208.90 354.44,208.00 355.83,208.00 C358.18,208.00 362.71,206.81 367.50,204.94 C368.60,204.51 373.10,203.44 377.50,202.55 C381.90,201.67 389.55,200.07 394.50,198.99 C434.85,190.24 510.85,189.23 554.00,196.88 C565.75,198.97 576.68,201.06 580.76,202.01 C583.11,202.55 586.07,203.00 587.34,203.00 C588.61,203.00 592.42,204.12 595.81,205.50 C599.19,206.88 602.76,208.00 603.73,208.00 C604.70,208.01 608.20,209.12 611.50,210.48 C614.80,211.84 618.52,212.96 619.76,212.98 C621.01,212.99 622.81,213.40 623.76,213.89 C624.72,214.38 630.30,217.13 636.17,220.01 C644.47,224.07 646.98,225.77 647.45,227.66 C647.78,228.99 648.52,229.80 649.07,229.45 C650.49,228.58 653.00,230.88 653.00,233.05 C653.00,236.85 648.32,240.62 640.79,242.89 C622.18,248.49 616.26,250.38 613.14,251.67 C611.30,252.44 608.94,252.80 607.91,252.47 C606.87,252.14 604.78,252.52 603.26,253.31 C596.58,256.79 591.13,259.00 589.20,259.00 C588.05,259.00 586.86,259.41 586.55,259.92 C586.24,260.43 583.85,261.61 581.24,262.55 C576.27,264.33 566.56,268.59 564.00,270.11 C563.17,270.60 559.12,272.64 555.00,274.63 C550.88,276.62 546.31,279.10 544.85,280.13 C543.39,281.16 541.52,282.00 540.69,282.00 C539.86,282.00 537.41,283.46 535.24,285.25 C530.07,289.51 522.58,294.97 518.23,297.64 C516.32,298.82 512.79,301.63 510.39,303.89 C507.99,306.15 505.33,308.00 504.49,308.00 C503.65,308.00 502.47,309.07 501.87,310.38 C501.28,311.69 499.15,313.62 497.15,314.67 C495.15,315.73 493.06,317.47 492.51,318.55 C491.19,321.11 483.36,328.97 479.28,331.84 C477.51,333.08 475.29,335.39 474.36,336.96 C473.43,338.54 471.62,340.31 470.33,340.89 C469.05,341.48 468.00,342.46 468.00,343.08 C468.00,344.12 464.99,348.32 461.61,352.00 C460.86,352.83 459.05,355.30 457.61,357.50 C455.02,361.44 453.89,362.91 447.98,370.13 C446.34,372.13 445.00,374.19 445.00,374.71 C445.00,375.23 443.88,376.71 442.50,378.00 C441.12,379.29 440.00,381.00 440.00,381.80 C440.00,382.60 438.20,385.94 436.00,389.24 C433.80,392.53 432.00,395.82 432.00,396.54 C432.00,397.27 431.42,398.45 430.72,399.18 C428.99,400.96 424.00,411.33 424.00,413.15 C424.00,413.95 423.63,415.03 423.18,415.55 C422.73,416.07 421.11,419.65 419.58,423.50 C418.06,427.35 416.41,431.40 415.92,432.50 C413.18,438.72 408.00,457.35 408.00,461.00 C408.00,462.21 407.35,464.62 406.56,466.35 C404.73,470.36 404.20,476.45 403.39,503.00 C402.74,524.31 404.17,551.29 406.17,555.22 C406.65,556.17 407.47,559.32 407.99,562.22 C408.52,565.13 409.63,569.86 410.47,572.75 C411.31,575.64 412.73,580.59 413.63,583.75 C414.53,586.91 415.82,590.85 416.51,592.50 C417.19,594.15 418.55,597.75 419.54,600.50 C420.53,603.25 421.88,606.17 422.55,607.00 C423.22,607.83 424.10,609.62 424.51,611.00 C424.93,612.38 427.02,616.88 429.16,621.00 C433.20,628.76 433.44,629.18 437.27,635.00 C438.54,636.92 440.20,640.03 440.97,641.90 C441.74,643.77 444.09,647.30 446.20,649.73 C448.31,652.16 450.70,655.45 451.51,657.03 C452.33,658.61 453.57,660.26 454.27,660.70 C454.96,661.14 456.79,663.08 458.32,665.00 C462.27,669.95 472.48,681.35 479.25,688.36 C482.41,691.63 485.00,694.69 485.00,695.16 C485.00,695.62 485.89,696.00 486.97,696.00 C488.05,696.00 489.94,697.35 491.16,699.00 C492.38,700.65 493.83,702.00 494.39,702.00 C495.33,702.00 498.25,704.54 505.03,711.25 C506.55,712.76 508.23,714.00 508.75,714.00 C509.27,714.00 510.78,714.95 512.10,716.12 C513.42,717.28 516.15,719.29 518.17,720.58 C520.18,721.87 522.12,723.39 522.47,723.96 C522.83,724.53 523.80,725.00 524.63,725.00 C525.46,725.00 528.02,726.29 530.32,727.86 C536.64,732.17 554.26,740.39 565.50,744.26 C571.00,746.16 577.08,748.28 579.00,748.97 C580.92,749.66 584.53,750.61 587.00,751.08 C589.47,751.54 593.08,752.23 595.00,752.61 C596.92,752.98 599.61,754.01 600.96,754.90 C603.09,756.29 608.03,756.50 638.99,756.50 C669.52,756.50 675.13,756.27 678.53,754.88 C683.45,752.86 691.18,751.00 694.61,751.00 C696.03,751.00 698.39,750.35 699.85,749.57 C701.31,748.78 707.67,746.49 714.00,744.49 C725.68,740.78 735.50,736.62 736.54,734.93 C736.86,734.42 737.92,734.00 738.90,734.00 C739.89,734.00 741.50,733.10 742.50,732.00 C743.50,730.90 744.84,730.00 745.50,730.00 C747.34,730.00 759.11,723.93 763.00,720.97 C767.20,717.78 778.19,709.91 782.85,706.76 C784.69,705.52 787.13,703.49 788.28,702.25 C789.42,701.01 791.19,700.00 792.21,700.00 C793.22,700.00 794.44,698.99 794.92,697.75 C795.40,696.51 797.41,694.64 799.39,693.60 C801.36,692.55 803.86,690.20 804.94,688.38 C806.01,686.56 807.95,684.80 809.25,684.47 C810.61,684.13 812.06,682.69 812.67,681.06 C813.26,679.51 814.99,677.62 816.53,676.87 C818.06,676.12 819.81,674.60 820.41,673.50 C821.48,671.54 828.04,663.29 833.00,657.67 C834.38,656.12 836.74,652.97 838.26,650.67 C839.77,648.38 842.17,645.22 843.58,643.65 C844.99,642.09 847.69,638.40 849.56,635.47 C851.44,632.53 853.43,629.85 853.99,629.51 C854.54,629.16 855.00,627.85 855.00,626.60 C855.00,625.34 855.89,623.51 856.97,622.52 C858.06,621.54 859.25,619.78 859.61,618.62 C859.98,617.45 861.11,615.43 862.14,614.12 C863.16,612.80 864.00,610.65 864.00,609.33 C864.00,608.02 864.64,606.69 865.43,606.39 C866.21,606.09 867.14,604.10 867.50,601.98 C867.86,599.85 868.80,597.58 869.58,596.94 C870.36,596.29 871.00,595.00 871.00,594.08 C871.00,593.15 871.42,591.97 871.94,591.45 C872.46,590.93 873.34,588.70 873.90,586.50 C874.46,584.30 875.66,580.03 876.56,577.00 C877.47,573.97 878.64,569.47 879.17,567.00 C879.70,564.53 880.96,558.67 881.97,554.00 C884.26,543.38 884.55,538.40 884.31,513.68 C884.17,499.51 883.70,492.53 882.65,489.18 C881.84,486.61 880.90,482.56 880.57,480.19 C879.86,475.17 875.53,459.86 874.03,457.05 C873.46,456.00 873.00,453.78 873.00,452.12 C873.00,450.47 872.55,448.84 872.00,448.50 C871.45,448.16 871.00,447.06 871.00,446.06 C871.00,445.06 870.32,443.68 869.49,442.99 C868.66,442.30 867.70,440.01 867.37,437.89 C867.03,435.77 866.37,434.27 865.90,434.56 C865.44,434.85 864.76,433.83 864.39,432.29 C864.02,430.76 862.04,426.58 859.99,423.00 C857.94,419.42 855.67,414.83 854.94,412.79 C854.22,410.75 852.69,408.05 851.55,406.79 C848.22,403.10 839.77,391.96 835.63,385.79 C833.53,382.64 830.97,379.81 829.95,379.49 C828.94,379.16 827.85,378.13 827.55,377.20 C827.25,376.26 821.24,369.97 814.21,363.22 C801.55,351.06 790.65,342.81 780.00,337.34 C776.97,335.78 773.91,333.95 773.18,333.26 C772.45,332.57 770.43,331.98 768.68,331.96 C766.93,331.95 764.38,331.30 763.00,330.54 C761.16,329.51 758.26,329.29 752.00,329.70 C744.72,330.18 742.71,330.73 738.00,333.55 C728.41,339.30 724.98,344.28 723.18,355.09 C721.64,364.38 722.49,368.94 727.91,380.38 C730.84,386.58 733.14,389.77 737.63,393.85 C740.86,396.79 744.86,400.46 746.52,402.01 C748.17,403.56 752.45,406.32 756.02,408.16 C759.60,410.00 763.86,412.45 765.51,413.62 C767.15,414.78 769.62,416.08 771.00,416.51 C772.38,416.93 774.57,418.11 775.88,419.14 C777.20,420.16 779.00,421.01 779.88,421.02 C781.88,421.05 798.83,430.21 806.27,435.29 C813.31,440.09 824.00,449.30 824.00,450.56 C824.00,451.30 824.69,452.28 825.53,452.75 C827.44,453.83 835.98,465.12 835.99,466.60 C836.00,467.20 836.85,468.67 837.88,469.86 C840.76,473.19 847.03,493.47 848.12,503.00 C848.65,507.67 848.78,515.10 848.41,519.50 C847.47,530.58 842.06,550.34 839.17,553.23 C838.53,553.87 838.00,555.40 838.00,556.62 C838.00,557.85 836.94,560.12 835.65,561.67 C834.36,563.23 832.74,565.55 832.07,566.84 C830.04,570.69 820.33,582.32 816.91,585.00 C815.15,586.38 812.96,588.20 812.05,589.06 C809.34,591.59 796.49,600.00 795.32,600.00 C794.73,600.00 793.75,600.60 793.13,601.34 C792.52,602.07 790.22,603.22 788.01,603.88 C785.81,604.54 784.00,605.51 784.00,606.04 C784.00,606.57 783.34,607.00 782.53,607.00 C781.73,607.00 779.14,607.61 776.78,608.36 C761.36,613.24 751.44,614.79 734.73,614.95 C726.43,615.03 717.59,614.65 715.07,614.12 C712.56,613.58 708.03,612.66 705.00,612.09 C698.57,610.86 691.34,609.05 688.50,607.97 C687.40,607.55 684.17,606.26 681.31,605.10 C678.46,603.95 675.46,603.00 674.64,603.00 C673.82,603.00 670.12,601.42 666.43,599.50 C662.74,597.58 659.32,596.00 658.84,596.00 C657.73,596.00 649.84,591.00 648.50,589.45 C647.94,588.81 645.58,587.32 643.25,586.13 C640.91,584.93 639.00,583.52 639.00,582.98 C639.00,582.44 638.30,582.00 637.44,582.00 C636.58,582.00 633.50,579.75 630.59,577.00 C627.69,574.25 624.80,572.00 624.17,572.00 C622.54,572.00 604.00,553.88 604.00,552.29 C604.00,551.55 602.86,550.52 601.47,549.99 C599.87,549.38 598.25,547.42 597.06,544.63 C596.02,542.21 594.27,539.60 593.17,538.83 C590.43,536.91 583.00,526.89 583.00,525.11 C583.00,524.31 582.23,522.80 581.28,521.76 C579.02,519.26 575.78,513.79 572.54,507.00 C571.09,503.98 569.31,500.38 568.59,499.00 C567.86,497.62 566.28,493.61 565.07,490.07 C563.87,486.54 562.49,482.92 562.02,482.04 C561.55,481.15 560.86,478.43 560.50,475.99 C560.13,473.54 559.63,471.21 559.37,470.79 C558.81,469.88 556.12,453.46 555.49,447.11 C555.24,444.57 554.63,439.80 554.14,436.50 C553.64,433.20 553.37,430.27 553.53,429.98 C553.70,429.69 554.10,425.87 554.43,421.48 C555.34,409.39 557.07,397.93 558.61,393.73 C559.38,391.66 560.01,388.96 560.03,387.73 C560.04,386.50 561.39,382.36 563.03,378.53 C564.66,374.69 566.00,370.82 566.00,369.91 C566.00,369.01 566.84,367.20 567.86,365.88 C568.89,364.57 570.06,362.44 570.46,361.15 C571.26,358.59 574.97,352.52 577.38,349.80 C578.21,348.87 579.60,346.73 580.47,345.05 C581.34,343.37 582.48,342.00 583.00,342.00 C583.52,342.00 584.62,340.70 585.45,339.10 C588.03,334.10 607.55,315.00 610.07,315.00 C610.66,315.00 612.62,313.42 614.44,311.50 C616.42,309.39 618.69,308.00 620.13,308.00 C621.66,308.00 622.88,307.18 623.51,305.75 C624.06,304.50 625.59,303.35 626.96,303.15 C628.31,302.96 629.89,302.26 630.46,301.60 C632.02,299.79 649.85,293.33 657.00,291.99 C659.47,291.52 662.85,290.68 664.50,290.12 C674.19,286.81 707.58,287.18 714.33,290.67 C715.94,291.51 718.27,291.90 719.62,291.56 C720.97,291.22 723.30,291.62 724.96,292.48 C726.58,293.32 729.67,294.00 731.83,294.00 C734.10,294.00 736.28,294.63 737.00,295.50 C737.68,296.33 739.11,297.00 740.16,297.00 C741.22,297.00 743.75,297.85 745.79,298.89 C747.83,299.93 749.95,300.86 750.50,300.96 C752.71,301.33 760.25,305.05 762.68,306.96 C764.11,308.08 765.88,309.00 766.62,309.00 C768.20,309.00 784.54,318.50 787.56,321.17 C788.70,322.18 790.09,323.00 790.66,323.00 C791.23,323.00 792.54,323.94 793.57,325.08 C794.61,326.23 796.82,327.77 798.48,328.51 C800.14,329.24 803.91,332.13 806.85,334.92 C809.80,337.71 814.07,341.46 816.35,343.25 C820.98,346.87 833.00,359.10 833.00,360.17 C833.00,360.55 833.88,361.14 834.95,361.48 C836.02,361.82 837.15,362.87 837.46,363.80 C837.77,364.74 840.33,367.98 843.15,371.00 C845.97,374.02 849.32,378.15 850.60,380.17 C851.88,382.18 853.39,384.12 853.96,384.47 C854.53,384.83 855.00,385.73 855.00,386.48 C855.00,387.23 856.24,389.18 857.75,390.82 C861.71,395.10 864.09,398.29 865.91,401.76 C866.78,403.43 869.19,407.69 871.25,411.24 C873.31,414.79 875.00,418.38 875.00,419.22 C875.00,420.07 875.67,421.31 876.48,421.99 C878.50,423.66 884.00,433.95 884.00,436.06 C884.00,436.99 884.63,438.28 885.40,438.92 C886.17,439.55 887.00,441.75 887.26,443.79 C887.68,447.20 890.53,456.20 893.50,463.50 C896.01,469.65 899.42,485.56 900.37,495.50 C900.63,498.25 901.38,504.10 902.04,508.50 C903.37,517.41 902.82,541.01 901.06,550.59 C896.30,576.50 894.73,583.64 893.46,585.05 C892.66,585.93 892.00,588.16 892.00,590.00 C892.00,593.02 889.26,601.21 885.43,609.65 C884.64,611.38 884.00,613.69 884.00,614.78 C884.00,615.87 883.33,617.32 882.50,618.00 C881.67,618.68 881.00,620.07 881.00,621.08 C881.00,623.45 878.92,628.00 877.84,628.00 C877.38,628.00 877.00,628.81 877.00,629.81 C877.00,630.80 876.32,632.49 875.50,633.56 C874.67,634.63 873.09,637.30 871.98,639.50 C869.15,645.09 867.57,647.71 865.78,649.74 C864.93,650.71 863.93,652.51 863.55,653.75 C863.17,654.99 862.49,656.00 862.04,656.00 C861.58,656.00 859.99,658.33 858.51,661.17 C857.02,664.01 855.17,666.97 854.40,667.74 C853.63,668.51 853.00,669.79 853.00,670.57 C853.00,671.36 852.66,672.00 852.25,672.01 C851.84,672.01 850.38,673.70 849.00,675.76 C847.62,677.82 845.49,680.32 844.25,681.32 C843.01,682.33 842.00,683.82 842.00,684.65 C842.00,686.77 818.45,712.71 814.83,714.59 C813.17,715.44 811.20,717.67 810.41,719.57 C809.62,721.45 808.58,723.00 808.09,723.00 C807.60,723.00 802.26,727.91 796.22,733.91 C790.18,739.91 783.84,745.55 782.12,746.44 C780.40,747.33 779.00,748.43 779.00,748.90 C779.00,749.37 775.64,752.07 771.54,754.91 C767.43,757.75 763.81,760.50 763.48,761.04 C763.15,761.57 759.42,764.24 755.19,766.97 C750.96,769.70 746.60,772.61 745.50,773.45 C744.40,774.28 742.38,775.82 741.00,776.85 C739.62,777.89 737.07,779.05 735.32,779.43 C733.57,779.82 731.54,780.85 730.82,781.73 C729.52,783.31 721.35,788.85 715.50,792.12 C709.82,795.30 685.83,807.00 684.99,807.00 C684.54,807.00 682.66,807.75 680.83,808.67 C674.62,811.78 674.03,812.00 671.76,812.02 C670.52,812.03 667.15,813.33 664.27,814.92 C661.39,816.51 656.66,818.34 653.77,819.00 C650.87,819.66 647.15,820.78 645.50,821.50 C640.33,823.75 625.33,828.00 622.54,828.00 C621.07,828.00 618.89,828.53 617.68,829.18 C614.04,831.13 609.18,832.07 575.00,837.35 C566.49,838.67 557.56,839.29 531.50,840.37 C527.10,840.55 518.55,840.32 512.50,839.85 Z" fill="#25D366"/>
<path d="M 0.00 512.00 L 0.00 0.00 L 512.00 0.00 L 1024.00 0.00 L 1024.00 512.00 L 1024.00 1024.00 L 512.00 1024.00 L 0.00 1024.00 L 0.00 512.00 ZM 566.50 840.41 C639.13,832.94 707.82,805.74 767.99,760.62 C773.21,756.70 778.61,752.55 779.99,751.38 C809.15,726.75 830.70,704.34 848.65,680.00 C878.99,638.88 895.85,599.82 902.60,555.00 C904.99,539.17 904.99,509.40 902.60,494.50 C895.86,452.37 880.49,415.90 855.31,382.25 C849.46,374.43 847.92,372.58 838.10,361.56 C811.45,331.68 772.71,305.36 739.47,294.56 C720.14,288.28 709.91,286.67 689.50,286.70 C668.58,286.73 658.73,288.42 641.41,294.94 C622.57,302.04 608.27,311.79 591.96,328.64 C548.10,373.97 539.95,443.73 571.05,507.50 C581.47,528.87 594.01,546.15 611.36,563.04 C640.52,591.42 671.12,607.35 711.50,615.15 C715.91,616.00 725.17,616.47 736.50,616.42 C751.20,616.36 756.17,615.95 763.61,614.20 C785.27,609.11 803.45,600.23 817.27,588.01 C821.81,584.00 834.00,569.82 834.00,568.56 C834.00,568.23 835.13,566.24 836.52,564.15 C840.49,558.15 845.51,545.36 847.97,535.00 C851.31,520.90 851.18,503.02 847.63,489.50 C842.65,470.57 832.41,453.90 818.24,441.69 C808.24,433.07 802.77,429.72 777.74,416.89 C746.07,400.66 736.58,393.03 728.48,377.29 C725.76,372.00 725.50,370.63 725.50,361.50 C725.50,350.64 727.12,345.84 732.86,339.66 C737.93,334.19 743.93,332.00 753.72,332.02 C771.84,332.06 789.59,341.92 813.86,365.43 C849.46,399.92 871.29,439.89 880.26,487.00 C882.08,496.57 882.45,502.10 882.47,520.00 C882.49,542.46 881.84,548.31 877.35,566.50 C873.31,582.85 868.98,594.65 861.37,610.00 C830.10,673.10 767.70,726.77 702.80,746.38 C658.63,759.72 615.57,759.06 572.00,744.39 C566.22,742.45 554.75,737.57 546.50,733.55 C514.39,717.89 487.02,696.01 462.05,666.01 C415.38,609.96 395.99,539.92 408.05,471.00 C421.81,392.40 480.63,315.77 558.00,275.66 C579.01,264.76 594.08,259.00 624.99,250.03 C646.04,243.92 652.64,241.07 654.00,237.49 C655.65,233.15 655.17,231.19 651.44,227.06 C643.29,218.04 612.27,206.57 575.50,198.99 C524.49,188.47 457.33,187.11 404.42,195.52 C335.15,206.53 274.34,235.63 229.30,279.35 C179.46,327.71 150.78,384.28 142.43,450.67 C140.25,468.03 140.27,500.26 142.48,518.00 C151.55,590.69 185.28,658.03 241.66,716.01 C267.64,742.73 286.49,758.64 313.50,776.67 C373.60,816.78 436.46,837.49 513.00,842.39 C522.50,843.00 551.91,841.91 566.50,840.41 Z" fill="rgb(254,254,254)"/>
</g>
</svg>